<svg aria-hidden="true" style="position: absolute; width: 0; height: 0; overflow: hidden;" version="1.1" xmlns="http://www.w3.org/2000/svg" xmlns:xlink="http://www.w3.org/1999/xlink">
    <defs>
<symbol id="code" viewBox="0 0 53 32">
<path d="M16 32l-16-16 16-16 3.8 3.8-12.267 12.267 12.2 12.2-3.733 3.733zM37.333 32l-3.8-3.8 12.267-12.267-12.2-12.2 3.733-3.733 16 16-16 16z"></path>
</symbol>
<symbol id="priority" viewBox="0 0 26 32">
<path d="M10.48 25.92l8.28-9.92h-6.4l1.16-9.080-7.4 10.68h5.56l-1.2 8.32zM6.4 32l1.6-11.2h-8l14.4-20.8h3.2l-1.6 12.8h9.6l-16 19.2h-3.2z"></path>
</symbol>
<symbol id="unlimited" viewBox="0 0 34 32">
<path d="M11.581 32l-2.895-4.876-5.486-1.219 0.533-5.638-3.733-4.267 3.733-4.267-0.533-5.638 5.486-1.219 2.895-4.876 5.181 2.21 5.181-2.21 2.895 4.876 5.486 1.219-0.533 5.638 3.733 4.267-3.733 4.267 0.533 5.638-5.486 1.219-2.895 4.876-5.181-2.21-5.181 2.21zM12.876 28.114l3.886-1.676 3.962 1.676 2.133-3.657 4.19-0.99-0.381-4.267 2.819-3.2-2.819-3.276 0.381-4.267-4.19-0.914-2.21-3.657-3.886 1.676-3.962-1.676-2.133 3.657-4.19 0.914 0.381 4.267-2.819 3.276 2.819 3.2-0.381 4.343 4.19 0.914 2.21 3.657zM15.162 21.41l8.61-8.61-2.133-2.21-6.476 6.476-3.276-3.2-2.133 2.133 5.41 5.41z"></path>
</symbol>

<symbol id="exclamation-mark" viewBox="0 0 32 32">
<path fill="currentColor" d="M12.638 0l1.108 23.166h4.504l1.112-23.166h-6.724z"></path>
  <path fill="currentColor" d="M18.147 27.702h-4.299v4.298h4.299v-4.298z"></path>
</symbol>

      </defs>
</svg>